<?xml version="1.0" encoding="UTF-8" standalone="no"?>
<svg
   xmlns:dc="http://purl.org/dc/elements/1.1/"
   xmlns:cc="http://creativecommons.org/ns#"
   xmlns:rdf="http://www.w3.org/1999/02/22-rdf-syntax-ns#"
   xmlns:svg="http://www.w3.org/2000/svg"
   xmlns="http://www.w3.org/2000/svg"
   xmlns:sodipodi="http://sodipodi.sourceforge.net/DTD/sodipodi-0.dtd"
   xmlns:inkscape="http://www.inkscape.org/namespaces/inkscape"
   width="2mm"
   height="2mm"
   version="1.1"
   viewBox="0 0 1.9995931 2.0002037"
   id="svg21"
   sodipodi:docname="ParalisButton.svg"
   inkscape:version="0.92.4 (5da689c313, 2019-01-14)">
  <metadata
     id="metadata25">
    <rdf:RDF>
      <cc:Work
         rdf:about="">
        <dc:format>image/svg+xml</dc:format>
        <dc:type
           rdf:resource="http://purl.org/dc/dcmitype/StillImage" />
        <dc:title></dc:title>
      </cc:Work>
    </rdf:RDF>
  </metadata>
  <sodipodi:namedview
     pagecolor="#ffffff"
     bordercolor="#666666"
     borderopacity="1"
     objecttolerance="10"
     gridtolerance="10"
     guidetolerance="10"
     inkscape:pageopacity="0"
     inkscape:pageshadow="2"
     inkscape:window-width="1920"
     inkscape:window-height="1017"
     id="namedview23"
     showgrid="false"
     units="mm"
     inkscape:zoom="48.040713"
     inkscape:cx="4.9361538"
     inkscape:cy="3.8341945"
     inkscape:window-x="-8"
     inkscape:window-y="-8"
     inkscape:window-maximized="1"
     inkscape:current-layer="layer1" />
  <defs
     id="defs5">
    <clipPath
       id="clipPath5989">
      <path
         d="m 423.3,1154 h 11.34 v -5.84 H 423.3 Z"
         id="path2"
         inkscape:connector-curvature="0" />
    </clipPath>
  </defs>
  <g
     id="g834">
    <g
       transform="matrix(0.38458225,0,0,0.38458225,-0.00248297,0.03148389)"
       id="g839">
      <g
         transform="translate(-73.78,-88.75)"
         id="g19">
        <g
           transform="matrix(0.3528,0,0,-0.3528,-74.94,498.4)"
           id="g17">
          <g
             transform="translate(436.3,1154)"
             id="g9">
            <path
               id="path7"
               d="m 0,0 c 0,-4.07 -3.301,-7.369 -7.372,-7.369 -4.069,0 -7.37,3.299 -7.37,7.369 0,4.071 3.301,7.37 7.37,7.37 C -3.301,7.37 0,4.071 0,0"
               inkscape:connector-curvature="0"
               style="fill:#2b2b2c;opacity:1" />
          </g>
          <g
             style="opacity:0.5"
             clip-path="url(#clipPath5989)"
             id="g15">
            <g
               transform="translate(428.9,1149)"
               id="g13">
              <path
                 id="path11"
                 d="M 0,0 C -3.072,0 -5.569,2.345 -5.66,5.396 -5.661,5.34 -5.668,5.283 -5.668,5.227 c 0,-3.131 2.538,-5.668 5.668,-5.668 3.132,0 5.67,2.537 5.67,5.668 C 5.67,5.283 5.663,5.34 5.662,5.396 5.571,2.345 3.074,0 0,0"
                 inkscape:connector-curvature="0"
                 style="fill:#c1c1c1;opacity:1" />
            </g>
          </g>
        </g>
      </g>
    </g>
    <path
       inkscape:connector-curvature="0"
       id="path856"
       d="m 0.69638287,1.0001018 c 0,-0.886613 -0.58451386,0.3271415 0.10866871,-0.22565276 C 1.4982337,0.22165479 0.18484353,0.52142736 1.0492278,0.71871754 1.9136115,0.91600771 0.86035449,0.07606296 1.2450419,0.87487423 c 0.3846869,0.79881087 0.3846869,-0.54835522 0,0.25045567 C 0.86035449,1.9241407 1.9136115,1.084195 1.0492278,1.2814866 0.18484353,1.4787763 1.4982332,1.7785488 0.80505158,1.2257546 0.11186948,0.67296027 0.69638287,1.8867153 0.69638287,1.0001018 Z"
       inkscape:transform-center-y="-0.030246726"
       style="opacity:0.98000004;fill:#ff00ff;fill-opacity:0;fill-rule:nonzero;stroke:#cb6b6d;stroke-width:0.06236855;stroke-linecap:round;stroke-linejoin:bevel;stroke-miterlimit:4;stroke-dasharray:none;stroke-opacity:1;paint-order:stroke fill markers" />
  </g>
  <g
     inkscape:groupmode="layer"
     id="layer1"
     inkscape:label="Layer 1" />
</svg>
